<?xml version="1.0" encoding="UTF-8" standalone="no"?>
<svg width="251px" height="34px" viewBox="0 0 251 34" version="1.1" xmlns="http://www.w3.org/2000/svg" xmlns:xlink="http://www.w3.org/1999/xlink">
    <!-- Generator: Sketch 3.6.1 (26313) - http://www.bohemiancoding.com/sketch -->
    <title>facebook-error</title>
    <desc>Created with Sketch.</desc>
    <defs></defs>
    <g id="Convert" stroke="none" stroke-width="1" fill="none" fill-rule="evenodd">
        <g id="Convert-/-Facebook-Error-Request" transform="translate(-450.000000, -283.000000)" fill="#FFFFFF">
            <g id="Modal-view" transform="translate(330.000000, 188.000000)">
                <g id="Content" transform="translate(0.000000, 72.000000)">
                    <g id="facebook-error" transform="translate(120.000000, 23.000000)">
                        <g id="Group">
                            <path d="M93.4072727,11.4665 C90.8673182,11.1952727 88.6696818,11.9649091 86.8120455,14.1988636 L86.8120455,13.5041818 L86.8120455,13.5041818 L86.8120455,1.445 L86.8120455,1.31209091 L86.8120455,0.497636364 L80.0854545,1.31209091 L80.0854545,33.0248182 L86.8120455,33.0248182 L86.8120455,31.1424545 C87.7192273,31.79 88.6016818,32.5696818 89.6340455,32.9390455 C93.5533182,34.3438636 98.7213182,33.1986818 100.5295,27.9565 C101.690136,24.5935909 101.66,21.1456818 100.786045,17.7449091 C99.8170455,13.9670455 97.3025909,11.8814545 93.4072727,11.4665 L93.4072727,11.4665 Z M94.4125909,25.2009545 C94.1166364,27.2919545 92.4521818,28.3876818 90.4763182,28.2339091 C89.9825455,28.1952727 89.5359091,28.0940455 89.1348636,27.9371818 C87.5422727,27.0230455 87.0608636,25.4922727 86.921,24.531 C86.9194545,24.5317727 86.9179091,24.5317727 86.9179091,24.5325455 C86.8089545,23.0450455 86.6915,19.9348182 87.4170909,18.4650909 C88.0329545,17.3384545 89.1078182,16.7249091 90.5335,16.6777727 C92.5588182,16.6113182 94.0911364,17.6158636 94.3925,19.6713182 C94.6598636,21.4825909 94.6722273,23.3912273 94.4125909,25.2009545 L94.4125909,25.2009545 Z" id="Shape"></path>
                            <path d="M117.246682,11.8582727 C114.909182,11.2331364 112.5485,11.2408636 110.216409,11.8621364 C106.723682,12.7917273 104.383091,15.0017273 103.628909,18.5168636 C103.217045,20.4347727 103.135136,22.474 103.244091,24.4405909 C103.492909,28.9394091 106.274727,32.1439091 110.592727,33.1391818 C110.653,33.1538636 110.716364,33.1646818 110.778182,33.1785909 L110.776636,33.1785909 C110.776636,33.1785909 110.789,33.1809091 110.808318,33.1847727 C110.974455,33.218 111.140591,33.2489091 111.3075,33.2744091 C111.363136,33.2790455 111.420318,33.2836818 111.475182,33.2890909 L111.479818,33.2890909 C111.689227,33.3277273 111.940364,33.3563182 112.204636,33.3771818 C113.05,33.4668182 114.125636,33.5309545 115.023545,33.4250909 C115.029727,33.4250909 115.032818,33.4235455 115.037455,33.4227727 C115.083045,33.422 115.129409,33.422 115.175,33.4189091 C119.633636,33.1870909 123.016636,30.3759091 124.004182,26.0633182 C124.545864,23.698 124.545864,21.3210909 124.021955,18.9542273 C123.202091,15.2389545 120.948818,12.8489091 117.246682,11.8582727 L117.246682,11.8582727 Z M117.531045,24.8601818 C117.508636,25.0000455 117.485455,25.1383636 117.453773,25.2759091 C117.007136,27.2602727 115.566,28.3343636 113.644227,28.2447273 C111.577955,28.1504545 110.160773,26.9426818 109.961409,24.8779545 C109.817682,23.3695909 109.806091,21.8295455 109.931273,20.3204091 C110.127545,17.9380909 111.617364,16.6352727 113.852091,16.6793182 C115.688864,16.7148636 116.997091,17.7557273 117.463818,19.5214091 C117.887273,21.2979091 117.572773,24.4560455 117.531045,24.8601818 L117.531045,24.8601818 Z" id="Shape"></path>
                            <path d="M16.269,11.747 L11.4680455,11.747 L11.4680455,8.55409091 C11.8188636,5.53581818 16.8045,6.10918182 16.8045,6.10918182 L16.8060455,5.90286364 L16.8045,5.87968182 L16.8045,0.921863636 L16.8037273,0.921863636 L16.8037273,0.921090909 L16.7998636,0.921090909 C16.6283182,0.880136364 6.88268182,-1.43263636 4.947,5.98477273 C4.947,5.98631818 4.947,5.98863636 4.94468182,5.99018182 C4.94081818,6.00640909 4.93618182,6.02263636 4.93231818,6.03886364 C4.62786364,6.96613636 4.64872727,11.2130455 4.65259091,11.747 L0.491454545,11.747 L0.491454545,17.4257727 L4.91068182,17.4257727 L4.91068182,32.8725909 L11.3459545,32.8725909 L11.3459545,17.4257727 L16.2682273,17.4257727 L16.8222727,11.747 L16.269,11.747 L16.269,11.747 Z" id="Shape"></path>
                            <path d="M31.6161364,14.4639091 C31.5373182,14.3765909 31.4592727,14.2923636 31.3920455,14.2220455 L31.3920455,14.2212727 C31.3812273,14.2104545 31.3727273,14.2011818 31.3619091,14.1903636 C31.2684091,14.093 31.2027273,14.0280909 31.2027273,14.0280909 L31.2027273,14.0280909 C29.6874091,12.4872727 29.1155909,12.104 27.9286818,11.7539545 C23.3641818,10.4094091 18.9202273,12.7994545 17.5130909,17.3917727 C16.6484091,20.2137727 16.6360455,23.1184545 17.1429545,25.976 C18.2379091,32.1647727 22.8410455,34.2372273 27.7470909,33.2156818 C29.2523636,32.9019545 30.3712727,31.9646364 31.4090455,30.6595 C31.4090455,30.6595 31.5025455,30.5451364 31.6169091,30.3225909 L31.6169091,33.0456818 L37.8945455,33.0456818 L37.8945455,11.7709545 L31.6169091,11.7709545 L31.6169091,14.4639091 L31.6161364,14.4639091 Z M31.0636364,25.1700455 C30.8534545,27.1374091 29.2616364,28.3189091 27.3800455,28.2447273 C25.4520909,28.1697727 24.1763182,27.1374091 23.7598182,25.2875 C23.2606364,22.6555909 23.8448182,19.5283636 23.8942727,19.2749091 C24.3980909,17.5084545 25.6831364,16.6345 27.5685909,16.6785455 C29.4200455,16.7202727 30.8472727,17.816 31.0559091,19.7339091 C31.2514091,21.5281818 31.2560455,23.375 31.0636364,25.1700455 L31.0636364,25.1700455 Z" id="Shape"></path>
                            <path d="M57.0674545,31.5210909 C56.7761364,30.4555 56.4446364,29.4045909 56.1239545,28.3892273 L55.8210455,27.2602727 C55.8210455,27.2602727 47.9531364,31.0373636 46.7260455,23.8602727 C46.6124545,22.6756818 46.6472273,21.4532273 46.8102727,20.2840909 C47.1162727,18.0779545 48.4623636,16.8964545 50.6035909,16.694 C51.3268636,16.6252273 52.0795,16.66 52.7958182,16.7813182 C53.771,16.9459091 54.723,17.2395455 55.7901364,17.5030455 C56.1610455,16.3679091 56.5404545,15.2451364 56.8935909,14.1146364 C56.9492273,13.9376818 56.9955909,13.7846818 57.0319091,13.6479091 L57.0326818,13.6479091 L57.2096364,12.9686818 C57.1655909,12.8782727 57.0581818,12.7847727 56.9144545,12.6935909 C56.9144545,12.6935909 56.9144545,12.6935909 56.9144545,12.6943636 C56.7336364,12.5429091 56.4253182,12.4169545 55.9439091,12.2407727 C55.7515,12.1704545 55.5583182,12.1078636 55.3651364,12.0475909 C55.1920455,11.9927273 55.0792273,11.9602727 55.0792273,11.9602727 L55.08,11.9602727 C53.0129545,11.3691364 50.8910455,11.3235455 48.7351364,11.5507273 C44.1915,12.0305909 41.1075455,14.7119545 40.2521364,19.1381364 C39.8031818,21.4671364 39.8240455,23.8247273 40.3394545,26.1606818 C41.1114091,29.6588182 43.2317727,31.9190455 46.6789091,32.9297727 C48.9283182,33.5889091 51.2333636,33.6221364 53.5268182,33.2643636 C54.4911818,33.1136818 55.8743636,32.6137273 56.8673182,32.2575 L57.2451818,32.1245909 L57.0666818,31.5195455 L57.0674545,31.5210909 L57.0674545,31.5210909 Z" id="Shape"></path>
                            <path d="M77.7804091,23.1980455 C77.7502727,21.7252273 77.7703636,20.2454545 77.5617273,18.7981364 C76.9875909,14.8294091 74.5712727,12.3180455 70.6635909,11.662 C69.1722273,11.4124091 67.5950909,11.4456364 66.0797727,11.5901364 C61.9325455,11.9857727 58.7844545,14.569 58.1392273,18.4565909 C57.7474545,20.8149545 57.6972273,23.3178182 58.0140455,25.6862273 C58.4923636,29.2492727 60.2271364,31.5187727 63.2284091,32.6083182 L63.2299545,32.6083182 C63.2430909,32.6090909 63.2562273,32.6114091 63.2693636,32.6129545 C63.2678182,32.6145 63.2685909,32.6145 63.2678182,32.6152727 C64.6378636,33.0248182 71.3428182,34.7781364 77.2534091,31.8085455 L77.0161818,30.9384545 C77.0138636,30.94 77.01,30.94 77.0076818,30.94 C76.7341364,29.7793636 76.4049545,28.6310909 76.0950909,27.4805 L76.0618636,27.3676818 C76.0618636,27.3676818 75.939,27.4117273 75.7210909,27.4812727 C75.7164545,27.4820455 75.7102727,27.4820455 75.7056364,27.4828182 C75.4475455,27.5500455 75.1925455,27.6288636 74.9390909,27.7138636 C74.8919545,27.7293182 74.8455909,27.744 74.7984545,27.7579091 C73.9036364,28.0098182 72.6247727,28.3204545 71.2740455,28.4943182 C70.1404545,28.6086818 68.9952727,28.6133182 67.8392727,28.5144091 C65.9623182,28.2037727 64.5258182,27.1984545 64.5945909,24.8215455 L65.6671364,24.8215455 C69.3468636,24.8215455 73.0258182,24.8215455 76.7063182,24.8207727 C76.7936364,24.8207727 76.8825,24.8215455 76.9698182,24.82 L76.9690455,24.8215455 C76.9690455,24.8215455 77.7595455,24.8115 77.7927727,24.8037727 C77.7927727,24.8037727 77.792,24.5951364 77.7927727,24.5696364 L77.7804091,23.1980455 L77.7804091,23.1980455 Z M71.7299545,20.2972273 L64.4616818,20.2972273 C64.4995455,18.8514545 64.6803636,17.5076818 65.9654091,16.6893636 C67.3300455,15.8223636 68.8376364,15.7899091 70.2409091,16.5672727 C71.6596364,17.3508182 71.7709091,18.7664545 71.7299545,20.2972273 L71.7299545,20.2972273 Z" id="Shape"></path>
                            <path d="M169.507,11.9927273 L162.371636,11.9927273 L156.174364,21.6811818 L156.174364,1.46509091 L156.174364,1.33218182 L156.174364,0.516954545 L149.447773,1.33218182 L149.447773,33.0456818 L156.174364,33.0456818 L156.174364,23.3402273 L162.371636,33.0595909 L169.507,33.0595909 L162.781955,22.5087727 L169.507,11.9927273 Z" id="Shape"></path>
                            <path d="M140.188955,11.8551818 C137.851455,11.2292727 135.489227,11.237 133.157136,11.8582727 C129.665955,12.7886364 127.325364,14.9978636 126.571182,18.5122273 C126.159318,20.4309091 126.077409,22.4693636 126.186364,24.4367273 C126.433636,28.9355455 129.217,32.1408182 133.533455,33.1353182 C133.595273,33.15 133.658636,33.1608182 133.720455,33.1747273 L133.718909,33.1747273 C133.718909,33.1747273 133.729727,33.1770455 133.749045,33.1809091 C133.915182,33.2141364 134.082864,33.2450455 134.249773,33.2697727 C134.305409,33.2751818 134.361818,33.2805909 134.417455,33.2836818 C134.419,33.2852273 134.420545,33.2852273 134.422091,33.2852273 C134.633045,33.3238636 134.882636,33.3532273 135.145364,33.3740909 C135.992273,33.4637273 137.069455,33.5278636 137.965818,33.422 C137.970455,33.4204545 137.973545,33.4204545 137.979727,33.4189091 C138.026864,33.4181364 138.071682,33.4181364 138.115727,33.4158182 C142.575136,33.1832273 145.958909,30.3712727 146.946455,26.0602273 C147.488136,23.6949091 147.488136,21.3172273 146.965773,18.9503636 C146.142818,15.2350909 143.891091,12.8450455 140.188955,11.8551818 L140.188955,11.8551818 Z M140.472545,24.8563182 C140.450136,24.9969545 140.426955,25.1345 140.395273,25.2728182 C139.947091,27.2571818 138.5075,28.3297273 136.585727,28.2416364 C134.519455,28.1450455 133.102273,26.9380455 132.902909,24.8740909 C132.759182,23.3665 132.746045,21.8264545 132.871227,20.3173182 C133.070591,17.9342273 134.558864,16.6314091 136.795136,16.6754545 C138.628818,16.711 139.938591,17.7518636 140.405318,19.5175455 C140.827227,21.2932727 140.515045,24.4529545 140.472545,24.8563182 L140.472545,24.8563182 Z" id="Shape"></path>
                        </g>
                        <path d="M187.595,23.28 L197.615,23.28 L197.615,20.73 L187.595,20.73 L187.595,14.37 L198.245,14.37 L198.245,11.76 L184.625,11.76 L184.625,33 L198.695,33 L198.695,30.36 L187.595,30.36 L187.595,23.28 Z M202.505,21.84 L202.505,33 L205.325,33 L205.325,25.53 C205.325,23.16 206.615,20.97 209.315,20.97 C209.765,20.97 210.245,21.03 210.605,21.12 L210.725,18.51 C210.395,18.42 210.005,18.39 209.615,18.39 C207.695,18.39 206.045,19.53 205.265,21.18 L205.175,21.18 C205.175,20.58 205.115,19.5 205.055,18.78 L202.385,18.78 C202.475,19.71 202.505,21.09 202.505,21.84 L202.505,21.84 Z M213.365,21.84 L213.365,33 L216.185,33 L216.185,25.53 C216.185,23.16 217.475,20.97 220.175,20.97 C220.625,20.97 221.105,21.03 221.465,21.12 L221.585,18.51 C221.255,18.42 220.865,18.39 220.475,18.39 C218.555,18.39 216.905,19.53 216.125,21.18 L216.035,21.18 C216.035,20.58 215.975,19.5 215.915,18.78 L213.245,18.78 C213.335,19.71 213.365,21.09 213.365,21.84 L213.365,21.84 Z M238.625,25.86 C238.625,21.48 235.295,18.39 230.945,18.39 C226.595,18.39 223.295,21.48 223.295,25.86 C223.295,30.24 226.595,33.39 230.945,33.39 C235.295,33.39 238.625,30.24 238.625,25.86 L238.625,25.86 Z M235.685,25.86 C235.685,28.56 234.005,31.02 230.945,31.02 C227.915,31.02 226.205,28.56 226.205,25.86 C226.205,23.16 227.915,20.73 230.945,20.73 C234.005,20.73 235.685,23.16 235.685,25.86 L235.685,25.86 Z M242.525,21.84 L242.525,33 L245.345,33 L245.345,25.53 C245.345,23.16 246.635,20.97 249.335,20.97 C249.785,20.97 250.265,21.03 250.625,21.12 L250.745,18.51 C250.415,18.42 250.025,18.39 249.635,18.39 C247.715,18.39 246.065,19.53 245.285,21.18 L245.195,21.18 C245.195,20.58 245.135,19.5 245.075,18.78 L242.405,18.78 C242.495,19.71 242.525,21.09 242.525,21.84 L242.525,21.84 Z" id="Error"></path>
                    </g>
                </g>
            </g>
        </g>
    </g>
</svg>